<svg width="48" height="39" viewBox="0 0 48 39" fill="none" xmlns="http://www.w3.org/2000/svg">
<path d="M40.6355 3.19577C37.523 1.69175 34.2387 0.618304 30.8645 0.00219418C30.8339 -0.00322682 30.8025 0.00145511 30.7746 0.0155964C30.7467 0.0297377 30.7236 0.0526438 30.7085 0.0811649C30.2855 0.870873 29.8175 1.90381 29.4905 2.71247C25.8533 2.13127 22.1537 2.13127 18.5165 2.71247C18.1517 1.81164 17.7391 0.933143 17.2805 0.0811649C17.2651 0.0529561 17.242 0.0303139 17.2141 0.0162181C17.1863 0.00212226 17.155 -0.00276669 17.1245 0.00219418C13.7495 0.615008 10.4645 1.68901 7.3535 3.19577C7.32688 3.20647 7.30462 3.22657 7.2905 3.25263C1.06851 13.0419 -0.638493 22.591 0.198507 32.0201C0.201507 32.0643 0.228507 32.1086 0.261507 32.137C3.88468 34.9629 7.93728 37.1205 12.2465 38.5178C12.2769 38.5279 12.3096 38.5276 12.3398 38.5168C12.37 38.506 12.3962 38.4853 12.4145 38.4578C13.3385 37.1311 14.1605 35.7317 14.8685 34.2597C14.8833 34.2294 14.8883 34.1949 14.8829 34.1613C14.8775 34.1277 14.8619 34.0969 14.8385 34.0734C14.823 34.0579 14.8046 34.0461 14.7845 34.0386C13.492 33.5156 12.2402 32.8872 11.0405 32.1591C11.007 32.1391 10.9821 32.1063 10.9709 32.0675C10.9597 32.0287 10.9632 31.9868 10.9805 31.9506C10.9907 31.9271 11.0061 31.9065 11.0255 31.8906C11.2775 31.6916 11.5295 31.4831 11.7695 31.2746C11.7907 31.2567 11.8161 31.2451 11.8431 31.2412C11.87 31.2373 11.8975 31.2412 11.9225 31.2525C19.7795 35.0305 28.2845 35.0305 36.0455 31.2525C36.0714 31.2407 36.0999 31.2365 36.1279 31.2404C36.1559 31.2443 36.1824 31.2561 36.2045 31.2746C36.4445 31.4831 36.6965 31.6916 36.9485 31.8906C36.9689 31.9063 36.9853 31.9271 36.9962 31.9511C37.0072 31.9752 37.0122 32.0016 37.0111 32.0282C37.0099 32.0548 37.0024 32.0807 36.9894 32.1036C36.9764 32.1264 36.9582 32.1455 36.9365 32.1591C35.7395 32.8938 34.4861 33.5215 33.1895 34.0354C33.1688 34.0433 33.15 34.0559 33.1345 34.0723C33.1189 34.0887 33.107 34.1084 33.0995 34.1302C33.0926 34.1513 33.0898 34.1737 33.0913 34.1959C33.0929 34.2182 33.0987 34.2399 33.1085 34.2597C33.8285 35.7286 34.6535 37.1311 35.5595 38.4578C35.5778 38.4853 35.604 38.506 35.6342 38.5168C35.6644 38.5276 35.6971 38.5279 35.7275 38.5178C40.0439 37.1249 44.1031 34.967 47.7305 32.137C47.7487 32.1237 47.7638 32.1064 47.7747 32.0861C47.7856 32.0659 47.792 32.0433 47.7935 32.0201C48.7955 21.119 46.1165 11.6488 40.6955 3.25579C40.69 3.24193 40.6819 3.22942 40.6715 3.21909C40.6612 3.20875 40.6489 3.20081 40.6355 3.19577ZM16.0415 26.2774C13.6745 26.2774 11.7275 23.9904 11.7275 21.1853C11.7275 18.3771 13.6385 16.0901 16.0415 16.0901C18.4625 16.0901 20.3915 18.3961 20.3555 21.1853C20.3555 23.9904 18.4445 26.2774 16.0415 26.2774ZM31.9895 26.2774C29.6255 26.2774 27.6755 23.9904 27.6755 21.1853C27.6755 18.3771 29.5865 16.0901 31.9895 16.0901C34.4105 16.0901 36.3425 18.3961 36.3035 21.1853C36.3035 23.9904 34.4105 26.2774 31.9895 26.2774Z" fill="black"/>
</svg>
