<svg width="46" height="48" viewBox="0 0 46 48" fill="none" xmlns="http://www.w3.org/2000/svg">
<path d="M22.7932 0C16.6077 0 15.8299 0.03 13.3996 0.144C10.9692 0.264 9.31387 0.666 7.86366 1.26C6.34248 1.86246 4.96462 2.80748 3.82641 4.029C2.66702 5.22809 1.76963 6.67872 1.19664 8.28C0.632511 9.804 0.247876 11.55 0.136759 14.1C0.0284915 16.665 0 17.481 0 24.003C0 30.519 0.0284915 31.335 0.136759 33.894C0.250725 36.45 0.632511 38.193 1.19664 39.72C1.78072 41.298 2.55854 42.636 3.82641 43.971C5.09143 45.306 6.36215 46.128 7.86081 46.74C9.31387 47.334 10.9664 47.739 13.3939 47.856C15.827 47.97 16.602 48 22.7932 48C28.9844 48 29.7565 47.97 32.1897 47.856C34.6143 47.736 36.2754 47.334 37.7256 46.74C39.2458 46.1372 40.6227 45.1922 41.76 43.971C43.0279 42.636 43.8057 41.298 44.3898 39.72C44.951 38.193 45.3357 36.45 45.4496 33.894C45.5579 31.335 45.5864 30.519 45.5864 24C45.5864 17.481 45.5579 16.665 45.4496 14.103C45.3357 11.55 44.951 9.804 44.3898 8.28C43.8169 6.67868 42.9195 5.22803 41.76 4.029C40.6221 2.80703 39.2442 1.86194 37.7228 1.26C36.2697 0.666 34.6115 0.261 32.1869 0.144C29.7537 0.03 28.9816 0 22.7875 0H22.7961H22.7932ZM20.7504 4.326H22.7961C28.8818 4.326 29.6027 4.347 32.0045 4.464C34.2268 4.569 35.4349 4.962 36.2383 5.289C37.3011 5.724 38.0618 6.246 38.8596 7.086C39.6573 7.926 40.1502 8.724 40.5634 9.846C40.8768 10.689 41.2472 11.961 41.3469 14.301C41.458 16.83 41.4808 17.589 41.4808 23.994C41.4808 30.399 41.458 31.161 41.3469 33.69C41.2472 36.03 40.8739 37.299 40.5634 38.145C40.1979 39.1871 39.6147 40.1293 38.8567 40.902C38.0589 41.742 37.3011 42.261 36.2355 42.696C35.4377 43.026 34.2297 43.416 32.0045 43.524C29.6027 43.638 28.8818 43.665 22.7961 43.665C16.7103 43.665 15.9866 43.638 13.5847 43.524C11.3624 43.416 10.1572 43.026 9.35376 42.696C8.36368 42.3118 7.46798 41.6987 6.73254 40.902C5.97396 40.1281 5.3898 39.185 5.02305 38.142C4.71249 37.299 4.33926 36.027 4.23954 33.687C4.13127 31.158 4.10848 30.399 4.10848 23.988C4.10848 17.58 4.13127 16.824 4.23954 14.295C4.34211 11.955 4.71249 10.683 5.0259 9.837C5.43903 8.718 5.93478 7.917 6.73254 7.077C7.5303 6.237 8.28818 5.718 9.35376 5.283C10.1572 4.953 11.3624 4.563 13.5847 4.455C15.6874 4.353 16.5023 4.323 20.7504 4.32V4.326ZM34.9619 8.31C34.6027 8.31 34.2471 8.38449 33.9152 8.52923C33.5834 8.67396 33.2818 8.8861 33.0279 9.15353C32.7739 9.42097 32.5724 9.73845 32.4349 10.0879C32.2975 10.4373 32.2267 10.8118 32.2267 11.19C32.2267 11.5682 32.2975 11.9427 32.4349 12.2921C32.5724 12.6415 32.7739 12.959 33.0279 13.2265C33.2818 13.4939 33.5834 13.706 33.9152 13.8508C34.2471 13.9955 34.6027 14.07 34.9619 14.07C35.6873 14.07 36.383 13.7666 36.896 13.2265C37.4089 12.6864 37.6971 11.9538 37.6971 11.19C37.6971 10.4262 37.4089 9.69364 36.896 9.15353C36.383 8.61343 35.6873 8.31 34.9619 8.31ZM22.7961 11.676C21.2435 11.6505 19.7016 11.9505 18.2601 12.5584C16.8187 13.1664 15.5065 14.0702 14.4 15.2173C13.2935 16.3643 12.4148 17.7317 11.815 19.2398C11.2152 20.7479 10.9063 22.3665 10.9063 24.0015C10.9063 25.6365 11.2152 27.2551 11.815 28.7632C12.4148 30.2713 13.2935 31.6387 14.4 32.7857C15.5065 33.9328 16.8187 34.8366 18.2601 35.4446C19.7016 36.0525 21.2435 36.3525 22.7961 36.327C25.869 36.2765 28.7998 34.9557 30.956 32.6497C33.1121 30.3438 34.3206 27.2375 34.3206 24.0015C34.3206 20.7655 33.1121 17.6592 30.956 15.3532C28.7998 13.0473 25.869 11.7265 22.7961 11.676ZM22.7961 15.999C24.8113 15.999 26.7441 16.842 28.1691 18.3424C29.5942 19.8429 30.3947 21.878 30.3947 24C30.3947 26.122 29.5942 28.1571 28.1691 29.6576C26.7441 31.158 24.8113 32.001 22.7961 32.001C20.7808 32.001 18.848 31.158 17.423 29.6576C15.9979 28.1571 15.1974 26.122 15.1974 24C15.1974 21.878 15.9979 19.8429 17.423 18.3424C18.848 16.842 20.7808 15.999 22.7961 15.999Z" fill="black"/>
</svg>
