<svg width="40" height="48" viewBox="0 0 40 48" fill="none" xmlns="http://www.w3.org/2000/svg">
<path d="M22.7932 0H28.4345C28.8448 2.145 29.9731 4.851 31.9532 7.536C33.8906 10.167 36.4606 12 39.8881 12V18C34.8935 18 31.1412 15.558 28.4915 12.513V33C28.4915 35.9667 27.656 38.8668 26.0907 41.3335C24.5253 43.8003 22.3004 45.7229 19.6974 46.8582C17.0943 47.9935 14.23 48.2906 11.4665 47.7118C8.70315 47.133 6.16479 45.7044 4.17249 43.6066C2.18019 41.5088 0.82341 38.8361 0.273735 35.9264C-0.275941 33.0166 0.00617246 30.0006 1.0844 27.2597C2.16263 24.5189 3.98854 22.1762 6.33124 20.528C8.67394 18.8797 11.4282 18 14.2458 18V24C12.5552 24 10.9027 24.5278 9.49705 25.5168C8.09143 26.5057 6.99588 27.9113 6.34894 29.5558C5.70201 31.2004 5.53274 33.01 5.86254 34.7558C6.19235 36.5016 7.00641 38.1053 8.2018 39.364C9.39718 40.6226 10.9202 41.4798 12.5782 41.8271C14.2363 42.1743 15.9549 41.9961 17.5167 41.3149C19.0786 40.6337 20.4135 39.4802 21.3527 38.0001C22.2919 36.5201 22.7932 34.78 22.7932 33V0Z" fill="black"/>
</svg>
