<svg width="48" height="42" viewBox="0 0 48 42" fill="none" xmlns="http://www.w3.org/2000/svg">
<path d="M15.078 41.0671C33.192 41.0671 43.101 25.2634 43.101 11.5825C43.101 11.1403 43.101 10.6917 43.083 10.2495C45.0122 8.77899 46.6772 6.95844 48 4.87312C46.1979 5.70975 44.2883 6.26114 42.333 6.5094C44.3926 5.21313 45.9352 3.17357 46.674 0.769788C44.739 1.97686 42.621 2.82422 40.413 3.27475C38.9285 1.61011 36.9642 0.507344 34.8243 0.137254C32.6843 -0.232837 30.4882 0.150407 28.576 1.22762C26.6639 2.30484 25.1424 4.0159 24.2473 6.09579C23.3523 8.17567 23.1335 10.5083 23.625 12.7323C19.7092 12.5256 15.8784 11.4545 12.3811 9.58846C8.88381 7.72246 5.79805 5.10323 3.324 1.90065C2.06802 4.18476 1.68472 6.88657 2.25194 9.45744C2.81916 12.0283 4.29436 14.2755 6.378 15.7427C4.81662 15.6868 3.28956 15.2454 1.92 14.4539V14.596C1.92269 16.9888 2.70992 19.3072 4.14862 21.1594C5.58732 23.0115 7.58924 24.2838 9.816 24.7612C8.97079 25.0064 8.09769 25.1286 7.221 25.1245C6.60295 25.1264 5.98614 25.0661 5.379 24.9444C6.00836 27.0042 7.23382 28.805 8.88374 30.0948C10.5337 31.3846 12.5254 32.0987 14.58 32.1371C11.0897 35.0236 6.7782 36.5892 2.34 36.5816C1.55796 36.5851 0.776469 36.5376 0 36.4394C4.50454 39.4633 9.73589 41.0689 15.078 41.0671Z" fill="black"/>
</svg>
